<svg xmlns="http://www.w3.org/2000/svg" aria-hidden="true" style="position:absolute;width:0;height:0;overflow:hidden">
  <defs>
    <symbol id="icon-high-quality" viewBox="0 0 32 32">
      <path fill="#ccc" d="m5.925 19.378 6.106-14.963-7.888 2.306.656 7.266zM27.534 6.269l-8.016 21.544 4.406-3.841 4.441-14.363-.744-2.409z" style="fill:var(--color1, #ccc)"/>
      <path fill="#666" d="M15.909 10.366c-1.309 0-2.375 1.103-2.375 2.463 0 1.356 1.066 2.463 2.375 2.463s2.375-1.103 2.375-2.463-1.066-2.463-2.375-2.463z" style="fill:var(--color2, #666)"/>
      <path fill="#666" d="m28.419 6.569-.028-.522-.519-.066c-3.594-.45-8.722-2.128-11.566-4.469l-.397-.325-.397.325C12.521 3.965 7.421 5.549 3.946 5.984l-.519.066-.028.522c-.013.203-.256 5.016 1.103 10.372.803 3.169 2.009 5.859 3.581 7.997 1.988 2.706 4.563 4.525 7.656 5.409l.172.05.172-.05c3.091-.884 5.666-2.703 7.656-5.409 1.572-2.137 2.775-4.828 3.581-7.997 1.353-5.356 1.106-10.172 1.097-10.375zm-2.316 10.062c-1.716 6.756-5.144 10.95-10.194 12.462-5.044-1.512-8.469-5.694-10.188-12.434-1.069-4.188-1.112-8.134-1.088-9.509 3.469-.522 8.216-2.05 11.275-4.359 3.047 2.309 7.8 3.838 11.278 4.359.022 1.372-.022 5.297-1.084 9.481z" style="fill:var(--color2, #666)"/>
      <path fill="#666" d="m18.259 22.925-2.331-2.106-2.369 2.116v-4.413h-.003l-1.409-.1v7.409l3.778-3.225 3.784 3.194.003-7.4-1.453.122zm-2.35-15.334c-2.784 0-5.05 2.35-5.05 5.237s2.266 5.238 5.05 5.238 5.05-2.35 5.05-5.238-2.266-5.237-5.05-5.237zm0 9.222c-2.094 0-3.8-1.787-3.8-3.988 0-2.197 1.703-3.988 3.8-3.988s3.8 1.787 3.8 3.988-1.706 3.988-3.8 3.988z" style="fill:var(--color2, #666)"/>
    </symbol>
    <symbol id="icon-research-development" viewBox="0 0 32 32">
      <path fill="#666" d="M17.809 28.784H7.125V4.343h3.037a1.64 1.64 0 0 0 1.478.934h8.722c.65 0 1.216-.384 1.478-.934h3.022v14.316c0 .344.281.625.625.625s.625-.281.625-.625V4.071a.987.987 0 0 0-.994-.978h-3.209a1.647 1.647 0 0 0-1.547-1.094H11.64c-.709 0-1.319.459-1.547 1.094H6.865a.987.987 0 0 0-.994.978v24.988c0 .541.447.978.994.978h10.944a.627.627 0 0 0 0-1.253z" style="fill:var(--color2, #666)"/>
      <path fill="#666" d="M22.075 12.644a.627.627 0 0 0-.625-.625H9.972a.937.937 0 1 0-.659 1.607.927.927 0 0 0 .734-.356H21.45a.627.627 0 0 0 .625-.625zm0 4.297a.627.627 0 0 0-.625-.625H10.066a.937.937 0 1 0-.753 1.498.939.939 0 0 0 .634-.247H21.45a.627.627 0 0 0 .625-.625zm-12.072 3.703h-.028a.937.937 0 1 0-.662 1.601.936.936 0 0 0 .731-.35h9.287c.344 0 .625-.281.625-.625s-.281-.625-.625-.625h-9.328zm19.691-4.1a.626.626 0 0 0-.844.266l-6.066 11.659-4.488-2.456a.625.625 0 0 0-.847.247.625.625 0 0 0 .247.847l5.066 2.775a.625.625 0 0 0 .91-.413l6.288-12.078a.63.63 0 0 0-.266-.847z" style="fill:var(--color2, #666)"/>
      <path fill="#ccc" d="M22.619 10.472H9.213a.838.838 0 0 1-.838-.838V7.09c0-.463.375-.838.838-.838h13.406c.462 0 .837.375.837.838v2.544a.838.838 0 0 1-.837.838z" style="fill:var(--color1, #ccc)"/>
    </symbol>
    <symbol id="icon-versatility" viewBox="0 0 32 32">
      <path fill="#999799" d="M14.356 22.984c-.031-.031-.063-.056-.088-.081-.537-.519-2.553-2.691-3.219-3.469-.128-.15-.428-.622-.691-1.041-.278-.438-.563-.891-.8-1.216a5.98 5.98 0 0 0-.672-.794 1.973 1.973 0 0 0-.422-.322 1.446 1.446 0 0 0-.675-.181c-.816 0-1.209.759-1.253 1.019a1.42 1.42 0 0 0-.003.356c.041.453.184.906.422 1.309l.403.691.853 1.297c.003.006.009.012.012.022-.531-.281-1.147-.637-1.406-1.016-.306-.444-.616-1.425-.716-1.784l-1.022-4.609c-.144-1.084-.9-1.469-1.509-1.469-.059 0-.109.003-.144.006-1.087.078-1.453.959-1.431 1.544.013.953 1.219 6.878 1.419 7.681a3.161 3.161 0 0 0 1.034 1.675c.309.262 4.706 3.988 5.125 4.319a.59.59 0 0 1 .169.184l.097 1.578a1.47 1.47 0 0 0 1.469 1.375h2.809a1.47 1.47 0 0 0 1.472-1.466v-2.637c.056-1.794-.847-2.619-1.234-2.972zm-.015 2.941v2.669a.22.22 0 0 1-.222.216H11.31a.222.222 0 0 1-.222-.203l-.097-1.575c-.006-.188-.088-.653-.644-1.091-.328-.259-3.481-2.925-5.103-4.3l-.031-.025c-.003-.003-.431-.347-.591-.991-.241-.972-1.381-6.716-1.381-7.394v-.028s.006-.078.034-.141c.019-.041.05-.106.244-.119l.006.006.041-.009c.072 0 .222 0 .272.4l.003.031 1.044 4.713c.041.15.409 1.475.894 2.178.478.697 1.422 1.188 2.112 1.55.191.1.356.188.478.259.097.056.262.147.447.222a.855.855 0 0 0 1.096-.397.864.864 0 0 0-.053-.884 14.263 14.263 0 0 1-.409-.794 2.935 2.935 0 0 0-.203-.353l-.834-1.266-.381-.659a1.977 1.977 0 0 1-.256-.781.076.076 0 0 1 .022-.022.368.368 0 0 1 .078.031.672.672 0 0 1 .141.116c.169.163.338.363.531.631.213.294.488.728.756 1.15.328.519.613.969.8 1.184.7.816 2.734 3.006 3.3 3.553l.116.106c.341.313.863.791.822 2.016zm14.193-14.159a1.588 1.588 0 0 0-.141-.006c-.606 0-1.356.384-1.5 1.459l-1.012 4.569c-.094.334-.406 1.328-.706 1.766-.253.369-.853.719-1.372.997v-.003l.837-1.269.409-.7c.234-.4.378-.85.419-1.3a1.522 1.522 0 0 0-.003-.356c-.044-.259-.434-1.016-1.247-1.016-.222 0-.45.059-.672.178a1.88 1.88 0 0 0-.422.319c-.222.212-.434.466-.669.788s-.519.772-.791 1.206c-.262.413-.559.884-.684 1.031-.663.772-2.659 2.922-3.191 3.434-.025.025-.056.05-.087.081-.384.35-1.281 1.169-1.225 2.95v2.613c0 .806.656 1.459 1.462 1.459h2.784c.772 0 1.413-.6 1.462-1.369l.097-1.563a.555.555 0 0 1 .166-.178c.419-.328 4.775-4.022 5.078-4.281a3.136 3.136 0 0 0 1.028-1.663c.197-.797 1.394-6.666 1.403-7.613.019-.581-.344-1.456-1.425-1.534zm.172 1.521c0 .672-1.128 6.362-1.369 7.325a1.93 1.93 0 0 1-.584.978l-.028.022c-1.606 1.363-4.731 4.006-5.056 4.262-.553.434-.631.897-.637 1.084l-.097 1.559a.212.212 0 0 1-.212.197h-2.784a.21.21 0 0 1-.212-.209v-2.647c-.041-1.212.475-1.684.819-1.997l.113-.106c.559-.541 2.578-2.712 3.269-3.522.184-.216.466-.659.794-1.175.262-.416.538-.847.747-1.141.191-.262.356-.462.525-.625.084-.081.128-.106.137-.113a.303.303 0 0 1 .072-.031.095.095 0 0 1 .016.019 1.95 1.95 0 0 1-.25.769l-.381.653-.828 1.256a3.214 3.214 0 0 0-.2.35c-.259.522-.375.741-.406.788-.181.262-.2.6-.053.881a.856.856 0 0 0 1.093.397 3.61 3.61 0 0 0 .441-.222c.122-.072.284-.159.475-.256.684-.356 1.619-.847 2.094-1.538.481-.697.847-2.012.887-2.163l1.038-4.653.003-.031c.047-.378.184-.391.256-.391l.053.003c.1.006.266.016.272.25v.025h-.003z" style="fill:var(--color3, #999799)"/>
      <path fill="#666" d="M23.609 11.622c.613-.975 1.453-2.309 1.453-4.181 0-3.169-2.353-5.75-5.241-5.75-1.4 0-2.719.603-3.697 1.675-.978-1.072-2.297-1.675-3.697-1.675-2.891 0-5.244 2.578-5.244 5.75 0 1.872.841 3.206 1.453 4.181 1.828 2.903 6.381 6.484 6.575 6.634a1.464 1.464 0 0 0 1.826 0c.191-.153 4.738-3.722 6.572-6.634zm-13.915-.669c-.591-.938-1.259-2.003-1.259-3.513 0-2.481 1.791-4.5 3.994-4.5 1.197 0 2.319.6 3.081 1.644l.616.841.616-.841c.762-1.044 1.887-1.644 3.081-1.644 2.2 0 3.991 2.019 3.991 4.5 0 1.513-.669 2.575-1.262 3.513-1.391 2.213-4.531 4.887-5.772 5.903v-5.234c.156.012.303.016.438.016.991 0 1.647-.294 2.509-1.119.722-.688 1.106-2.128 1.272-2.928.044-.203-.009-.416-.141-.575s-.322-.253-.528-.253c-.019 0-.041 0-.059.003-.584.053-1.691.228-2.509.828-.544.397-1.081 1.166-1.425 1.919a4.717 4.717 0 0 0-.166-.35c-.406-.794-1.022-1.541-1.647-1.997-.909-.666-2.141-.856-2.794-.912a.691.691 0 0 0-.6.256.707.707 0 0 0-.144.591c.334 1.606.816 2.659 1.472 3.216.934.791 2.272 1.184 3.069 1.25v5.341c-1.194-.975-4.419-3.709-5.831-5.953zM14.356 22.984c-.031-.031-.063-.056-.088-.081-.537-.519-2.553-2.691-3.219-3.469-.128-.15-.428-.622-.691-1.041-.278-.438-.563-.891-.8-1.216a5.98 5.98 0 0 0-.672-.794 1.973 1.973 0 0 0-.422-.322 1.446 1.446 0 0 0-.675-.181c-.816 0-1.209.759-1.253 1.019a1.42 1.42 0 0 0-.003.356c.041.453.184.906.422 1.309l.403.691.853 1.297c.003.006.009.012.012.022-.531-.281-1.147-.637-1.406-1.016-.306-.444-.616-1.425-.716-1.784l-1.022-4.609c-.144-1.084-.9-1.469-1.509-1.469-.059 0-.109.003-.144.006-1.087.078-1.453.959-1.431 1.544.013.953 1.219 6.878 1.419 7.681a3.161 3.161 0 0 0 1.034 1.675c.309.262 4.706 3.988 5.125 4.319a.59.59 0 0 1 .169.184l.097 1.578a1.47 1.47 0 0 0 1.469 1.375h2.809a1.47 1.47 0 0 0 1.472-1.466v-2.637c.056-1.794-.847-2.619-1.234-2.972z" style="fill:var(--color2, #666)"/>
      <path fill="#ccc" d="M14.341 25.925v2.669a.22.22 0 0 1-.222.216H11.31a.222.222 0 0 1-.222-.203l-.097-1.575c-.006-.188-.088-.653-.644-1.091-.328-.259-3.481-2.925-5.103-4.3l-.031-.025c-.003-.003-.431-.347-.591-.991-.241-.972-1.381-6.716-1.381-7.394v-.028s.006-.078.034-.141c.019-.041.05-.106.244-.119l.006.006.041-.009c.072 0 .222 0 .272.4l.003.031 1.044 4.713c.041.15.409 1.475.894 2.178.478.697 1.422 1.188 2.112 1.55.191.1.356.188.478.259.097.056.262.147.447.222a.855.855 0 0 0 1.096-.397.864.864 0 0 0-.053-.884 14.263 14.263 0 0 1-.409-.794 2.935 2.935 0 0 0-.203-.353l-.834-1.266-.381-.659a1.977 1.977 0 0 1-.256-.781.076.076 0 0 1 .022-.022.368.368 0 0 1 .078.031.672.672 0 0 1 .141.116c.169.163.338.363.531.631.213.294.488.728.756 1.15.328.519.613.969.8 1.184.7.816 2.734 3.006 3.3 3.553l.116.106c.341.313.863.791.822 2.016z" style="fill:var(--color1, #ccc)"/>
      <path fill="#666" d="M28.534 11.766a1.588 1.588 0 0 0-.141-.006c-.606 0-1.356.384-1.5 1.459l-1.012 4.569c-.094.334-.406 1.328-.706 1.766-.253.369-.853.719-1.372.997v-.003l.837-1.269.409-.7c.234-.4.378-.85.419-1.3a1.522 1.522 0 0 0-.003-.356c-.044-.259-.434-1.016-1.247-1.016-.222 0-.45.059-.672.178a1.88 1.88 0 0 0-.422.319c-.222.212-.434.466-.669.788s-.519.772-.791 1.206c-.262.413-.559.884-.684 1.031-.663.772-2.659 2.922-3.191 3.434-.025.025-.056.05-.087.081-.384.35-1.281 1.169-1.225 2.95v2.613c0 .806.656 1.459 1.462 1.459h2.784c.772 0 1.413-.6 1.462-1.369l.097-1.563a.555.555 0 0 1 .166-.178c.419-.328 4.775-4.022 5.078-4.281a3.136 3.136 0 0 0 1.028-1.663c.197-.797 1.394-6.666 1.403-7.613.019-.581-.344-1.456-1.425-1.534z" style="fill:var(--color2, #666)"/>
      <path fill="#ccc" d="M28.706 13.287c0 .672-1.128 6.362-1.369 7.325a1.93 1.93 0 0 1-.584.978l-.028.022c-1.606 1.363-4.731 4.006-5.056 4.262-.553.434-.631.897-.637 1.084l-.097 1.559a.212.212 0 0 1-.212.197h-2.784a.21.21 0 0 1-.212-.209v-2.647c-.041-1.212.475-1.684.819-1.997l.113-.106c.559-.541 2.578-2.712 3.269-3.522.184-.216.466-.659.794-1.175.262-.416.538-.847.747-1.141.191-.262.356-.462.525-.625.084-.081.128-.106.137-.113a.303.303 0 0 1 .072-.031.095.095 0 0 1 .016.019 1.95 1.95 0 0 1-.25.769l-.381.653-.828 1.256a3.214 3.214 0 0 0-.2.35c-.259.522-.375.741-.406.788-.181.262-.2.6-.053.881a.856.856 0 0 0 1.093.397 3.61 3.61 0 0 0 .441-.222c.122-.072.284-.159.475-.256.684-.356 1.619-.847 2.094-1.538.481-.697.847-2.012.887-2.163l1.038-4.653.003-.031c.047-.378.184-.391.256-.391l.053.003c.1.006.266.016.272.25v.025h-.003z" style="fill:var(--color1, #ccc)"/>
    </symbol>
    <symbol id="icon-wide-network" viewBox="0 0 32 32">
      <path fill="#ccc" d="M13.591 4.156h8.313v9.313c-4.819.906-8.447 4.897-8.447 9.684 0 2.416.925 4.628 2.459 6.344h-3.322V5.153c0-.55.447-.997.997-.997zm-3.025 24.972H6.344V12.381c0-.447.362-.813.813-.813h3.409v17.559zM25.781 9.813v3.516c-.516-.088-1.353-.131-1.891-.131-.366 0-.728.022-1.084.063V9.814h2.975z" style="fill:var(--color1, #ccc)"/>
      <path fill="#666" d="M22.953 15.838c-3.884 0-7.031 3.147-7.031 7.031s3.147 7.031 7.031 7.031 7.031-3.147 7.031-7.031-3.15-7.031-7.031-7.031zm-5.512 4.65c.153-.131 3.256-1.813 3.781-2.119.472-.275 1.563-.297 2.534 0s1.738.525 2.216.547c.481.025 1.691.194 2.122.478s.519 1.941-.016 2.5c0 0-1.656 1.366-2.522 1.366s-1.328-.256-1.328-.256l-2.631-1.022s-.288-.169-.288-.331c0-.016.009-.047.022-.066 0 0 .144-.306.359-.275.241.034 1.784.281 1.784.281s.078.012.172 0a.34.34 0 0 0 .272-.472.236.236 0 0 0-.128-.128 60.832 60.832 0 0 0-1.381-.547c-.375-.134-.462-.175-.691-.116-.081.022-.169.044-.25.091l-3.188 1.353s-.806.369-1.022-.197c-.212-.566.028-.956.181-1.087zm10.743 4.875c-.153.131-3.256 1.813-3.781 2.119-.472.275-1.563.297-2.534 0s-1.738-.525-2.216-.547c-.481-.025-1.691-.194-2.122-.478s-.519-1.941.016-2.5c0 0 1.656-1.366 2.522-1.366s1.328.256 1.328.256l2.631 1.022s.288.169.288.331a.143.143 0 0 1-.022.066s-.144.306-.359.275c-.241-.034-1.784-.281-1.784-.281s-.078-.012-.172 0a.34.34 0 0 0-.272.472.236.236 0 0 0 .128.128c.191.078 1.006.409 1.381.547.375.134.462.175.691.116.081-.022.169-.044.25-.091l3.188-1.353s.806-.369 1.022.197c.212.566-.028.956-.181 1.087z" style="fill:var(--color2, #666)"/>
      <path fill="#666" d="M15.569 28.887h-4.334V3.053c0-.266.209-.478.469-.478h9.416c.259 0 .469.216.469.478v9.878c0 .344.281.625.625.625s.625-.281.625-.625v-2.647h4.319a.46.46 0 0 1 .469.45v3.753c0 .344.281.625.625.625s.625-.281.625-.625v-3.75c0-.938-.772-1.7-1.719-1.7h-4.322V3.053c0-.953-.772-1.728-1.719-1.728h-9.412c-.947 0-1.719.775-1.719 1.728v5.981H5.667c-.947 0-1.719.762-1.719 1.7v18.15H2.807c-.241 0-.434.275-.434.613v.028c0 .337.194.613.434.613h12.762c.241 0 .434-.275.434-.613V29.5c0-.337-.197-.613-.434-.613zM5.197 10.738c0-.25.209-.45.469-.45h4.3v18.578H5.197V10.738z" style="fill:var(--color2, #666)"/>
      <path fill="#666" d="M13.025 12.997h1.641v1.641h-1.641zm0 3.875h1.641v1.641h-1.641zm0-11.434h1.641v1.641h-1.641zm0 3.781h1.641v1.641h-1.641zm4.994-3.781h1.641v1.641h-1.641zm0 3.781h1.641v1.641h-1.641zM19.659 13v.975a9.694 9.694 0 0 0-1.284.666h-.356V13h1.641zm-12.928-.091h1.641v1.641H6.731zm0 3.625h1.641v1.641H6.731zm-.003 3.625h1.641V21.8H6.728z" style="fill:var(--color2, #666)"/>
    </symbol>
    <symbol id="icon-facebook" viewBox="0 0 32 32">
      <path d="M21.329 5.313h2.921V.225C23.746.156 22.013 0 19.994 0c-4.212 0-7.097 2.649-7.097 7.519V12H8.249v5.688h4.648V32h5.699V17.689h4.46l.708-5.688h-5.169V8.082c.001-1.644.444-2.769 2.735-2.769z"/>
    </symbol>
    <symbol id="icon-instagram" viewBox="0 0 32 32">
      <path d="M31.969 9.408c-.075-1.7-.35-2.869-.744-3.882a7.803 7.803 0 0 0-1.85-2.838A7.867 7.867 0 0 0 26.543.844C25.524.45 24.361.175 22.661.1 20.948.019 20.404 0 16.06 0s-4.888.019-6.595.094c-1.7.075-2.869.35-3.882.744a7.803 7.803 0 0 0-2.838 1.85A7.867 7.867 0 0 0 .901 5.52C.507 6.539.232 7.702.157 9.402c-.081 1.713-.1 2.257-.1 6.601s.019 4.888.094 6.595c.075 1.7.35 2.869.744 3.882a7.895 7.895 0 0 0 1.85 2.838 7.867 7.867 0 0 0 2.832 1.844c1.019.394 2.182.669 3.882.744 1.706.075 2.25.094 6.595.094s4.888-.018 6.595-.094c1.7-.075 2.869-.35 3.882-.744a8.181 8.181 0 0 0 4.682-4.682c.394-1.019.669-2.182.744-3.882.075-1.707.094-2.251.094-6.595s-.006-4.888-.081-6.595zm-2.882 13.065c-.069 1.563-.331 2.407-.55 2.969a5.307 5.307 0 0 1-3.038 3.038c-.563.219-1.413.481-2.969.55-1.688.075-2.194.094-6.464.094s-4.782-.018-6.464-.094c-1.563-.069-2.407-.331-2.969-.55a4.926 4.926 0 0 1-1.838-1.194 4.974 4.974 0 0 1-1.194-1.838c-.219-.563-.481-1.413-.55-2.969-.075-1.688-.094-2.194-.094-6.464s.019-4.782.094-6.464c.069-1.563.331-2.407.55-2.969a4.868 4.868 0 0 1 1.2-1.838A4.974 4.974 0 0 1 6.639 3.55c.563-.219 1.413-.481 2.969-.55 1.688-.075 2.194-.094 6.464-.094 4.276 0 4.782.019 6.464.094 1.563.069 2.407.331 2.969.55a4.914 4.914 0 0 1 1.838 1.194 4.974 4.974 0 0 1 1.194 1.838c.219.563.481 1.413.55 2.969.075 1.688.094 2.194.094 6.464s-.019 4.77-.094 6.457z"/>
      <path d="M16.059 7.782c-4.538 0-8.22 3.682-8.22 8.22s3.682 8.22 8.22 8.22 8.22-3.682 8.22-8.22-3.682-8.22-8.22-8.22zm0 13.553a5.333 5.333 0 0 1 0-10.664 5.333 5.333 0 0 1 0 10.664zM26.524 7.457a1.919 1.919 0 1 1-3.838 0 1.919 1.919 0 0 1 3.838 0z"/>
    </symbol>
    <symbol id="icon-linkedin" viewBox="0 0 32 32">
      <path d="M31.992 32v-.001H32V20.263c0-5.741-1.236-10.164-7.948-10.164-3.227 0-5.392 1.771-6.276 3.449h-.093v-2.913h-6.364v21.364h6.627V21.42c0-2.785.528-5.479 3.977-5.479 3.399 0 3.449 3.179 3.449 5.657v10.401h6.62zM.528 10.636h6.635V32H.528V10.636zM3.843 0C1.722 0 0 1.721 0 3.843s1.721 3.879 3.843 3.879c2.121 0 3.843-1.757 3.843-3.879A3.846 3.846 0 0 0 3.843 0z"/>
    </symbol>
    <symbol id="icon-twitter" viewBox="0 0 32 32">
      <path d="M32 6.078c-1.19.522-2.458.868-3.78 1.036a6.523 6.523 0 0 0 2.886-3.626 13.11 13.11 0 0 1-4.16 1.588A6.574 6.574 0 0 0 22.154 3c-3.632 0-6.556 2.948-6.556 6.562 0 .52.044 1.02.152 1.496-5.454-.266-10.28-2.88-13.522-6.862a6.605 6.605 0 0 0-.898 3.316 6.57 6.57 0 0 0 2.914 5.452 6.479 6.479 0 0 1-2.964-.808v.072c0 3.188 2.274 5.836 5.256 6.446a6.548 6.548 0 0 1-1.72.216 5.8 5.8 0 0 1-1.242-.112c.85 2.598 3.262 4.508 6.13 4.57a13.182 13.182 0 0 1-8.134 2.798c-.538 0-1.054-.024-1.57-.09A18.469 18.469 0 0 0 10.064 29c12.072 0 18.672-10 18.672-18.668 0-.29-.01-.57-.024-.848A13.087 13.087 0 0 0 32 6.078z"/>
    </symbol>
  </defs>
</svg>
